 <svg  version="1.0" xmlns="http://www.w3.org/2000/svg"  width="300.000000pt" height="298.000000pt" viewBox="0 0 300.000000 298.000000"  preserveAspectRatio="xMidYMid meet">  <g transform="translate(0.000000,298.000000) scale(0.100000,-0.100000)" fill="#ffa200" stroke="none"> <path d="M935 2848 c-4 -9 -22 -19 -40 -22 -19 -4 -37 -12 -41 -18 -5 -7 -2 -9 9 -5 14 5 15 3 5 -13 -12 -18 -12 -18 -26 1 -11 16 -17 18 -28 8 -8 -7 -13 -18 -10 -25 6 -16 -15 -34 -49 -40 -33 -6 -24 13 13 28 15 6 22 12 15 15 -14 5 -103 -64 -103 -80 0 -5 -17 -25 -37 -43 -21 -18 -32 -33 -25 -34 6 0 12 -7 12 -16 0 -10 6 -14 14 -11 10 4 13 1 9 -9 -3 -7 -11 -14 -19 -14 -8 0 -14 -4 -14 -10 0 -5 7 -7 15 -4 8 4 15 2 15 -4 0 -16 -33 -24 -43 -10 -6 9 -7 8 -3 -4 3 -12 0 -18 -9 -18 -25 0 -28 21 -6 51 12 16 17 29 12 29 -6 0 -20 -18 -31 -40 -23 -46 -27 -68 -7 -52 10 8 13 6 13 -9 0 -13 -5 -17 -17 -14 -33 11 -50 -227 -24 -355 4 -19 15 -49 26 -66 10 -17 19 -39 19 -49 0 -9 5 -15 12 -13 18 6 18 108 1 136 -8 13 -12 26 -9 29 3 3 -1 15 -9 27 -19 26 -19 36 1 36 8 0 12 -4 9 -10 -3 -5 -2 -10 4 -10 19 0 32 37 17 49 -7 6 -16 7 -21 3 -4 -4 -5 0 -3 8 3 8 1 23 -4 33 -7 15 -12 16 -24 6 -11 -9 -14 -8 -14 5 0 9 5 16 10 16 14 0 12 27 -2 34 -7 3 -3 3 10 0 12 -3 21 -2 20 3 -4 12 25 73 34 73 5 0 8 7 8 15 0 8 -4 15 -10 15 -5 0 -10 -4 -10 -10 0 -5 -6 -10 -14 -10 -8 0 -19 -12 -24 -27 -6 -16 -11 -23 -11 -16 -2 19 19 66 26 59 3 -3 12 -1 20 5 9 9 17 8 27 0 11 -9 18 -6 35 15 12 15 19 29 16 32 -8 8 -35 -19 -36 -37 0 -10 -2 -11 -6 -3 -2 6 -13 12 -24 12 -10 0 -19 5 -19 11 0 5 4 8 8 5 5 -3 30 5 58 18 47 22 48 23 26 35 -18 10 -20 15 -12 31 9 16 7 20 -15 26 -21 5 -23 9 -14 26 7 13 18 18 32 15 22 -5 61 4 56 13 -1 3 0 15 3 27 4 16 11 20 26 16 13 -3 32 3 47 16 29 22 50 14 52 -22 1 -11 7 -25 12 -30 18 -18 13 25 -5 51 -14 21 -14 23 10 31 19 8 23 15 19 32 -6 22 -5 21 35 -7 43 -30 57 -53 21 -33 -16 8 -20 8 -17 -1 2 -7 18 -18 35 -25 26 -11 31 -11 27 0 -3 7 0 16 7 21 7 4 10 3 6 -2 -3 -5 21 -7 56 -5 l62 5 -65 7 c-36 4 -69 4 -74 1 -5 -3 -6 1 -1 8 5 8 21 11 45 7 29 -4 40 0 51 14 9 13 15 15 21 7 4 -7 2 -16 -5 -21 -13 -10 87 -2 103 8 6 3 10 15 10 25 0 10 5 22 12 26 6 4 8 3 5 -2 -3 -6 3 -15 14 -22 10 -7 19 -8 19 -3 0 5 -6 12 -12 15 -13 6 22 2 92 -9 l35 -5 -40 15 c-96 37 -354 61 -371 34 -4 -8 -9 -7 -15 2 -6 11 -9 10 -14 -3z m153 -16 c2 -6 14 -8 30 -3 36 9 72 3 72 -13 0 -33 -57 -49 -79 -22 -12 14 -51 10 -51 -5 0 -13 -34 -11 -48 3 -8 8 -12 8 -12 1 0 -14 -26 -24 -45 -17 -8 4 -15 12 -15 19 0 7 -6 16 -12 18 -9 4 -10 6 -1 6 6 1 19 -6 27 -15 14 -13 16 -14 16 0 0 16 29 16 63 1 13 -5 24 -2 35 10 16 17 15 17 -15 12 -33 -7 -57 8 -26 16 27 6 57 1 61 -11z"/> <path d="M1275 2800 c3 -6 13 -10 21 -10 8 0 14 -4 14 -10 0 -5 6 -10 13 -10 7 0 23 -14 37 -31 14 -17 31 -38 39 -46 10 -10 11 -17 3 -22 -7 -4 -8 -12 -1 -21 7 -12 10 -11 15 8 5 18 9 20 15 10 6 -9 9 -4 9 15 0 15 4 27 9 27 4 0 6 -12 4 -27 -4 -22 -2 -25 6 -13 8 12 11 8 11 -19 0 -23 4 -32 13 -28 16 6 41 -29 27 -38 -6 -3 -10 1 -10 9 0 9 -5 16 -11 16 -7 0 -6 -8 3 -22 8 -13 24 -51 35 -85 26 -76 103 -167 103 -120 0 7 -11 24 -24 38 -30 33 -56 82 -56 108 0 11 -4 23 -10 26 -13 8 -13 45 -1 45 5 0 12 -6 14 -12 3 -8 6 -6 6 5 1 9 -6 17 -15 17 -8 0 -13 4 -9 9 7 13 -15 59 -31 65 -11 4 -10 -1 2 -20 9 -13 14 -27 10 -31 -3 -3 -6 -1 -6 6 0 7 -5 9 -12 5 -7 -4 -8 -3 -4 4 4 7 2 12 -4 12 -6 0 -10 8 -8 18 2 10 -12 35 -30 56 -27 31 -32 34 -32 16 0 -12 5 -18 10 -15 11 7 13 -6 4 -30 -5 -12 -11 -6 -25 25 -10 23 -23 39 -28 36 -5 -3 -14 1 -21 9 -7 8 -16 12 -22 9 -5 -3 -14 -2 -21 4 -19 14 -49 23 -42 12z"/> <path d="M1274 2753 c-4 -13 -10 -20 -16 -17 -13 8 -58 -24 -58 -42 0 -12 4 -14 13 -6 24 20 57 24 57 8 0 -21 -34 -37 -65 -32 -14 3 -25 0 -25 -5 0 -5 18 -9 40 -9 22 0 43 0 48 0 4 0 7 3 7 8 1 4 7 18 14 31 9 16 9 21 1 16 -12 -8 -11 26 2 35 4 3 3 12 -3 20 -7 12 -10 11 -15 -7z"/> <path d="M1090 2731 l-45 -6 33 -8 c24 -5 40 -2 55 8 12 8 17 14 12 13 -6 0 -30 -4 -55 -7z"/> <path d="M1498 2721 c4 -11 19 -33 35 -50 15 -17 25 -31 22 -31 -7 0 24 -50 49 -77 20 -24 10 -33 -13 -10 -10 10 -11 8 -5 -8 5 -11 16 -27 25 -35 31 -28 51 -102 54 -199 2 -51 8 -98 14 -104 6 -6 11 -28 11 -50 0 -41 0 -41 60 -19 13 5 13 3 1 -11 -7 -9 -14 -36 -16 -59 -6 -101 -33 -186 -36 -113 -2 77 -10 134 -23 174 -8 21 -12 49 -9 60 5 20 1 21 -66 21 -67 0 -142 22 -127 37 3 3 12 0 21 -7 8 -7 15 -9 15 -5 0 9 -31 34 -43 35 -4 0 -6 -5 -5 -11 2 -7 -9 -15 -24 -20 -16 -4 -28 -4 -28 -1 0 4 -16 8 -35 9 -25 2 -35 -1 -35 -12 0 -8 6 -12 14 -9 8 3 17 1 21 -5 3 -7 0 -8 -9 -5 -9 3 -16 1 -16 -5 0 -6 -5 -11 -11 -11 -5 0 -8 4 -4 9 14 23 -16 19 -31 -4 -13 -20 -19 -23 -25 -13 -6 9 -9 9 -9 1 0 -22 18 -23 84 -8 39 9 101 14 158 13 78 -3 96 -6 115 -24 12 -12 20 -24 16 -28 -4 -3 -17 4 -30 16 -13 12 -23 16 -23 10 0 -6 14 -19 30 -29 30 -17 39 -33 20 -33 -5 0 -10 5 -10 10 0 6 -5 10 -11 10 -7 0 -8 -11 -4 -30 10 -44 -1 -67 -35 -72 -30 -5 -41 6 -17 16 6 3 -10 3 -37 -1 -39 -4 -47 -3 -41 7 6 10 4 12 -9 7 -10 -4 -23 -7 -29 -8 -7 0 -3 -4 8 -9 19 -8 19 -9 -2 -9 -13 -1 -23 5 -23 12 0 8 -3 8 -9 -2 -8 -12 -13 -12 -35 3 -26 17 -27 17 -22 -8 3 -14 7 -30 11 -36 10 -15 45 -12 51 5 5 13 23 15 96 13 83 -2 89 -4 86 -23 -3 -18 -9 -20 -60 -18 -32 1 -58 -2 -58 -8 0 -5 11 -10 25 -10 14 -1 30 -3 35 -4 6 -1 15 -3 21 -4 5 0 8 -5 5 -10 -4 -5 -1 -11 6 -13 7 -3 5 -7 -6 -11 -9 -4 -15 -3 -12 2 3 5 -5 8 -19 7 -14 0 -25 -4 -25 -8 0 -13 -35 -9 -49 5 -10 10 -11 9 -6 -5 10 -26 -24 -36 -41 -13 -11 15 -17 16 -26 7 -7 -7 -15 -12 -19 -12 -12 0 -23 42 -20 74 2 17 -1 26 -7 22 -6 -3 -12 -1 -14 5 -3 9 -14 8 -40 -1 l-37 -14 26 -30 c28 -34 77 -64 108 -67 17 -1 16 -2 -5 -10 -44 -16 111 0 168 16 44 13 56 22 67 48 7 18 10 33 6 35 -5 1 -6 14 -3 27 2 14 8 22 13 19 5 -3 9 10 9 28 0 36 14 66 23 50 4 -5 6 -87 6 -183 -1 -96 -1 -190 -1 -209 0 -22 -2 -28 -6 -18 -5 11 -12 14 -20 9 -10 -6 -10 -13 2 -35 12 -24 12 -31 0 -54 -8 -15 -14 -33 -14 -41 0 -8 -3 -11 -7 -8 -3 4 -12 -5 -20 -19 -17 -33 -17 -33 7 -27 11 3 20 3 20 -1 0 -17 -62 -135 -83 -156 -48 -49 -88 -81 -96 -75 -5 2 -11 -2 -15 -10 -7 -19 3 -19 45 1 47 23 115 98 146 164 23 47 27 52 31 31 5 -28 23 -49 38 -44 14 5 74 -63 74 -83 0 -25 -20 -56 -69 -107 -152 -159 -476 -275 -616 -221 -17 7 -18 6 -7 -8 11 -14 11 -16 -2 -14 -22 3 -53 34 -66 67 -7 16 -15 28 -17 25 -18 -18 117 -187 142 -179 21 6 36 -15 41 -57 7 -56 56 -155 103 -205 21 -22 47 -63 59 -91 12 -28 39 -82 60 -120 l39 -69 62 -8 61 -9 0 -34 c0 -21 -4 -33 -10 -29 -5 3 -10 15 -10 26 0 10 -6 19 -14 19 -8 0 -21 3 -30 6 -13 5 -16 -1 -16 -29 0 -35 20 -62 28 -39 8 25 21 10 16 -18 -7 -33 10 -62 30 -54 10 4 12 -2 9 -20 -8 -42 16 -30 36 17 10 23 21 53 24 67 10 37 54 89 60 70 2 -8 12 -46 21 -85 10 -38 24 -80 32 -92 20 -31 18 -33 -21 -33 -33 0 -48 14 -24 22 7 2 7 12 -2 31 -16 35 -62 38 -80 5 -9 -16 -9 -23 0 -26 19 -6 12 -22 -9 -22 l-21 0 21 -22 c11 -12 20 -27 20 -32 0 -6 -5 -4 -10 4 -6 10 -10 11 -10 3 0 -7 -5 -13 -11 -13 -5 0 -7 4 -4 10 3 5 -1 20 -9 32 -12 16 -28 22 -72 25 -31 3 -68 2 -82 -2 l-25 -6 29 -18 c27 -17 30 -17 43 -1 13 16 18 16 52 2 39 -15 60 -42 34 -42 -8 0 -15 8 -15 17 0 15 -1 15 -14 -2 -13 -18 -13 -18 -24 1 -11 18 -11 17 -13 -6 -3 -50 -4 -55 -15 -53 -6 1 -11 -5 -11 -13 0 -24 25 -16 49 16 l22 30 106 -6 c58 -4 178 -7 268 -8 l163 -1 -4 -22 c-3 -17 0 -23 14 -23 22 0 25 24 9 66 -8 21 -7 31 5 44 26 29 18 60 -27 104 -24 22 -50 55 -58 71 -8 17 -32 39 -52 50 l-38 20 -21 -22 -22 -22 -45 26 -45 27 -18 -22 c-14 -18 -16 -29 -7 -58 7 -29 7 -40 -5 -51 -12 -12 -16 -6 -31 46 -29 105 -78 100 -126 -11 -16 -38 -24 -48 -33 -39 -8 8 -7 23 6 58 24 64 9 88 -63 96 -54 7 -68 17 -95 72 -8 17 -19 37 -25 45 -5 8 -22 41 -36 72 -14 32 -39 70 -54 85 -31 32 -81 109 -75 115 5 5 -25 93 -43 125 -7 13 -26 30 -42 38 -51 26 -28 41 69 48 141 9 301 72 431 168 65 49 140 142 140 176 0 23 1 23 35 9 19 -8 35 -12 35 -9 0 3 6 1 13 -5 6 -5 30 -10 52 -10 22 -1 60 -11 85 -23 47 -23 242 -101 348 -139 96 -35 67 -35 -38 0 -51 17 -98 29 -104 27 -6 -2 12 -11 39 -19 69 -22 210 -74 226 -83 8 -5 10 -4 5 3 -4 7 -3 12 1 12 15 0 114 -66 108 -72 -3 -3 17 -20 45 -38 51 -33 100 -86 100 -109 0 -7 28 -79 61 -159 64 -153 103 -267 133 -387 44 -178 48 -190 54 -152 10 74 -64 331 -169 586 -56 136 -70 162 -120 215 -74 79 -184 144 -344 205 -72 27 -165 65 -208 85 -43 20 -133 54 -200 77 -67 23 -129 47 -137 54 -8 8 -37 23 -63 34 -40 17 -51 28 -69 67 l-20 47 21 72 c14 44 24 115 28 181 5 97 9 117 40 181 29 59 34 79 29 113 -7 51 -12 60 -37 60 -22 0 -22 0 -19 105 1 52 -4 102 -15 140 -24 86 -84 207 -97 199 -7 -4 -8 -3 -4 4 8 13 -62 110 -93 129 -18 11 -19 11 -13 -6z m-161 -747 c8 -20 -8 -36 -26 -25 -15 10 -8 41 9 41 6 0 13 -7 17 -16z m489 -1652 c6 -4 31 -41 55 -82 l44 -75 3 60 c2 45 -1 62 -12 71 -9 6 -16 14 -16 18 0 8 33 8 54 0 14 -5 14 -8 1 -21 -11 -11 -15 -39 -15 -105 0 -108 -7 -107 -76 11 l-44 76 0 -67 c0 -53 4 -69 18 -77 13 -8 8 -10 -25 -11 -24 0 -43 5 -43 10 0 6 6 10 14 10 20 0 27 160 9 167 -7 3 -13 9 -13 14 0 11 31 12 46 1z m175 -35 c-22 -22 -12 -48 23 -62 42 -18 66 -50 66 -88 0 -36 -28 -47 -86 -34 -39 9 -44 13 -44 39 0 34 16 37 24 4 7 -29 52 -44 73 -23 20 20 8 40 -40 62 -53 25 -68 61 -43 100 9 14 22 23 27 19 7 -4 7 -10 0 -17z m-307 -186 c10 -15 -19 -19 -38 -6 -24 18 -12 39 14 25 10 -6 21 -14 24 -19z m200 0 c20 -22 10 -29 -40 -23 l-34 4 21 19 c27 24 32 24 53 0z"/> <path d="M890 2704 c0 -16 5 -21 18 -17 25 6 26 39 1 39 -13 0 -19 -7 -19 -22z"/> <path d="M1169 2703 c-19 -25 -21 -26 -15 -5 7 21 6 22 -19 10 -15 -7 -22 -14 -16 -16 17 -6 2 -22 -21 -22 -14 0 -18 5 -14 15 4 11 -1 15 -17 15 -13 0 -28 5 -34 11 -9 9 -16 8 -28 -5 -19 -19 -40 -22 -29 -3 5 8 2 8 -9 -2 -15 -12 -17 -11 -17 3 0 10 -5 14 -11 11 -6 -4 -8 -10 -5 -13 3 -3 0 -12 -6 -19 -10 -12 -8 -14 8 -11 10 1 22 8 27 13 4 6 10 1 13 -12 3 -12 13 -24 21 -28 13 -4 14 -3 3 10 -10 12 -10 18 0 30 16 19 41 2 33 -23 -4 -14 -3 -15 5 -2 6 8 8 18 6 22 -3 4 0 8 5 8 6 0 11 -4 11 -8 0 -17 49 -32 74 -22 13 5 27 6 30 3 3 -4 6 1 6 10 0 10 3 17 8 17 4 0 13 9 20 20 18 30 -3 24 -29 -7z"/> <path d="M1335 2695 c6 -27 5 -28 -8 -13 -8 10 -17 15 -20 11 -4 -3 0 -11 9 -17 16 -12 9 -50 -7 -40 -5 3 -9 -1 -9 -9 0 -8 -7 -18 -16 -21 -23 -9 -27 -8 -20 9 7 19 -8 19 -24 0 -15 -18 -103 -16 -95 3 6 17 -13 15 -31 -3 -12 -11 -20 -12 -36 -4 -11 6 -22 8 -25 5 -3 -3 -22 2 -42 10 -56 24 -80 24 -105 -1 -13 -13 -32 -25 -42 -28 -17 -4 -17 -5 -1 -6 10 0 28 5 40 13 28 18 97 17 97 -2 0 -7 -4 -11 -8 -8 -5 3 -25 -6 -45 -19 -20 -14 -44 -25 -54 -25 -25 0 -47 -16 -39 -28 4 -6 -2 -10 -14 -9 -21 1 -28 17 -7 17 8 0 7 4 -3 10 -20 13 -33 13 -25 0 3 -5 -2 -10 -12 -11 -14 0 -15 -2 -3 -6 8 -4 21 -12 28 -20 7 -7 22 -13 33 -13 10 0 19 -5 19 -12 0 -6 7 -4 18 5 10 10 22 14 25 11 4 -4 13 -1 21 5 8 7 25 11 38 8 20 -4 20 -4 -4 -6 -16 0 -28 -5 -28 -11 0 -5 -9 -10 -21 -10 -11 0 -17 -4 -14 -10 4 -6 16 -5 33 4 33 17 133 46 159 46 10 0 29 9 43 20 l25 20 -62 0 c-49 0 -61 -3 -57 -14 3 -9 -5 -15 -27 -20 -50 -10 -127 -7 -135 5 -4 8 3 9 26 4 28 -6 32 -5 27 9 -5 12 0 16 19 16 14 0 23 4 20 8 -2 4 9 14 26 21 27 12 32 12 43 -2 13 -18 41 -24 30 -8 -3 5 -1 12 5 16 5 3 10 3 10 -2 0 -4 43 -7 96 -7 103 2 136 15 160 62 6 12 14 19 17 15 16 -15 5 11 -14 35 l-21 27 7 -30z"/> <path d="M807 2696 c-15 -7 -24 -15 -21 -19 4 -4 0 -7 -8 -7 -15 0 -28 -20 -28 -43 0 -8 3 -8 11 0 6 6 17 9 24 6 8 -3 15 4 17 18 2 12 10 25 18 27 13 5 13 3 1 -12 -8 -9 -11 -19 -7 -23 3 -3 6 -1 6 5 0 6 10 12 22 14 20 3 21 4 5 19 -9 9 -13 19 -10 23 8 8 3 7 -30 -8z"/> <path d="M880 2649 c0 -6 -9 -9 -20 -6 -11 3 -23 1 -26 -5 -4 -5 7 -8 27 -6 29 3 56 28 30 28 -6 0 -11 -5 -11 -11z"/> <path d="M1417 2636 c-4 -9 -3 -15 2 -12 5 3 14 -9 21 -27 23 -63 30 -74 23 -37 -3 19 -7 43 -7 52 0 9 -2 15 -5 13 -2 -3 -9 3 -16 12 -11 14 -12 14 -18 -1z"/> <path d="M1377 2613 c-10 -19 -17 -63 -8 -63 4 0 11 14 15 32 6 31 3 47 -7 31z"/> <path d="M704 2599 c-8 -14 15 -36 41 -41 23 -3 28 23 6 30 -9 3 -11 0 -6 -8 5 -9 4 -11 -3 -6 -7 4 -12 14 -12 22 0 17 -16 19 -26 3z"/> <path d="M798 2593 c-10 -3 -18 -8 -18 -13 0 -5 -3 -16 -7 -26 -5 -13 -3 -15 8 -8 8 5 34 14 59 20 32 8 38 12 20 13 -15 0 -30 5 -35 9 -6 5 -18 7 -27 5z"/> <path d="M758 2524 c-27 -44 -6 -126 23 -96 11 10 10 12 -4 12 -20 0 -20 1 -7 35 10 25 -1 68 -12 49z"/> <path d="M619 2418 c0 -2 -3 -14 -5 -28 -2 -14 -14 -32 -25 -41 -21 -15 -21 -17 -4 -42 9 -15 18 -27 19 -27 6 0 -1 37 -9 49 -6 10 -4 12 5 6 8 -5 11 -4 6 3 -3 5 -2 12 3 14 9 3 23 68 15 68 -2 0 -4 -1 -5 -2z"/> <path d="M606 2203 c-9 -10 -7 -53 3 -53 11 0 21 49 11 55 -4 2 -10 2 -14 -2z"/> <path d="M912 2162 c-13 -8 -38 -17 -55 -19 -17 -2 -35 -7 -39 -11 -4 -4 41 -6 100 -4 88 3 103 6 86 15 -12 7 -19 17 -18 22 6 16 -49 14 -74 -3z"/> <path d="M1283 2154 c-47 -17 -69 -49 -68 -100 0 -32 0 -32 -27 -18 -21 11 -28 22 -28 44 0 33 16 41 23 13 4 -14 5 -13 6 4 0 12 9 27 19 33 15 10 15 11 -3 4 -40 -14 -85 -17 -85 -4 0 7 -8 10 -20 7 -11 -3 -22 -1 -25 4 -3 4 -13 5 -22 2 -11 -4 -14 -3 -9 5 4 7 2 12 -3 12 -6 0 -11 -7 -11 -15 0 -8 6 -15 14 -15 8 0 22 -7 30 -16 9 -8 16 -11 16 -5 0 6 6 11 14 11 18 0 49 -87 35 -96 -13 -8 -14 -7 -33 36 -18 39 -18 45 0 -55 4 -23 2 -26 -5 -15 -6 8 -11 10 -11 4 0 -6 -10 -16 -22 -22 -20 -9 -20 -11 -4 -11 13 -1 16 -6 11 -18 -4 -10 -8 -27 -10 -38 -1 -11 -4 -21 -5 -22 -3 -3 -7 -18 -9 -33 0 -5 -9 -10 -18 -10 -15 0 -15 1 2 13 30 23 -1 31 -33 9 -87 -61 -197 -55 -251 14 -25 31 -29 69 -6 61 8 -4 17 -1 21 5 5 7 -2 9 -20 6 -14 -3 -26 -2 -27 1 -1 3 -2 23 -3 44 -3 46 28 82 83 96 20 5 52 14 71 19 l35 10 -30 1 c-89 2 -270 -41 -262 -62 2 -7 11 -11 19 -10 10 2 13 -5 10 -31 -3 -27 0 -34 17 -39 13 -3 28 -23 41 -54 53 -126 58 -129 178 -119 138 12 170 18 185 34 16 20 57 114 57 134 1 19 36 58 52 58 18 0 56 -42 96 -106 26 -42 64 -74 87 -74 14 0 2 18 -17 27 -35 16 -100 118 -108 167 -6 40 -4 44 27 67 51 36 79 58 73 58 -3 0 -24 -7 -47 -15z m-591 -104 c-11 -20 -20 -26 -27 -19 -7 7 -2 17 14 30 31 26 33 24 13 -11z"/> <path d="M1333 2143 c-9 -3 -9 -12 -2 -31 8 -21 7 -29 -7 -39 -10 -7 -24 -13 -31 -13 -7 0 -10 -6 -7 -14 3 -8 -3 -16 -15 -19 -12 -3 -21 -10 -21 -16 0 -19 18 -12 45 16 14 15 25 24 25 19 0 -6 14 3 30 19 17 16 30 25 30 21 0 -5 6 -3 14 3 8 7 27 17 43 22 l28 9 -30 -6 c-16 -3 -43 -8 -59 -11 -26 -5 -28 -3 -23 16 6 23 -1 31 -20 24z"/> <path d="M837 2090 c-21 -4 -46 -14 -55 -24 -15 -15 -15 -16 6 -16 12 0 22 4 22 9 0 5 24 8 53 6 28 -2 44 -1 35 1 -28 8 -21 25 7 18 15 -4 25 -2 25 5 0 12 -35 13 -93 1z"/> <path d="M925 2050 c10 -17 -14 -38 -35 -33 -11 3 -17 9 -14 14 3 5 -3 9 -12 9 -16 0 -16 -1 0 -19 16 -18 16 -20 -6 -35 l-23 -16 28 2 c15 1 27 8 27 14 0 7 7 15 16 18 19 7 62 -24 57 -41 -7 -20 43 -39 62 -23 8 7 15 16 15 19 0 8 -82 46 -92 43 -4 -1 -5 5 -2 13 4 8 12 15 20 15 8 0 14 5 14 11 0 5 5 7 12 3 7 -4 8 -3 4 4 -4 7 -14 12 -22 12 -8 0 -12 -4 -9 -10 4 -7 -3 -7 -20 0 -18 7 -24 7 -20 0z"/> <path d="M766 1995 c4 -11 8 -31 9 -45 3 -34 15 -60 27 -60 5 0 23 -10 40 -21 24 -18 34 -19 53 -11 13 6 25 7 27 2 3 -9 75 13 91 29 12 12 -32 3 -49 -11 -8 -6 -11 4 -9 32 1 25 -3 44 -12 52 -12 9 -14 9 -13 -3 4 -25 0 -44 -14 -62 -13 -16 -16 -16 -59 3 -30 14 -48 29 -55 48 -6 15 -18 36 -27 47 -17 20 -17 20 -9 0z"/> <path d="M619 1975 c-7 -11 -5 -41 6 -102 5 -30 4 -43 -4 -43 -6 0 -11 -4 -11 -10 0 -5 8 -10 17 -10 9 0 13 -3 10 -7 -4 -3 -2 -12 4 -20 17 -20 -5 -16 -23 5 -19 21 -88 147 -88 161 0 5 12 12 28 14 16 2 9 5 -20 6 -40 1 -48 -2 -48 -17 0 -22 85 -145 129 -186 18 -17 31 -40 31 -53 0 -16 4 -22 12 -17 6 4 8 3 5 -3 -4 -6 14 -52 40 -103 36 -71 67 -114 139 -192 52 -55 94 -104 94 -109 0 -8 36 -27 60 -34 3 0 19 -8 35 -17 55 -29 175 -43 251 -29 83 15 138 37 129 51 -5 7 -12 5 -21 -7 -7 -10 -14 -15 -14 -10 0 4 -16 0 -36 -8 -42 -17 -44 -18 -44 -7 0 4 20 15 44 25 23 10 56 31 72 46 34 34 90 141 86 164 -1 4 3 7 9 7 5 0 7 5 4 10 -11 18 -30 -5 -44 -52 -23 -74 -80 -143 -130 -154 -14 -4 -30 -10 -36 -14 -5 -4 -35 -10 -65 -14 -30 -3 -64 -7 -75 -9 -25 -5 -75 12 -75 25 0 6 -12 8 -30 4 -17 -3 -41 -1 -53 6 -12 6 -29 14 -37 18 -8 4 -13 11 -12 15 2 4 0 11 -5 14 -4 3 -14 17 -21 30 -12 20 -12 25 0 33 9 7 4 8 -15 4 -31 -7 -47 15 -28 38 10 11 9 14 -3 12 -9 -1 -19 -6 -23 -11 -4 -4 -2 -5 6 0 10 5 12 4 7 -4 -11 -16 -26 -3 -19 16 5 12 3 14 -7 8 -10 -6 -12 -4 -7 7 4 12 1 14 -14 11 -10 -3 -19 -1 -19 5 0 6 -11 23 -25 38 -39 42 -67 92 -59 105 4 7 3 9 -3 6 -13 -8 -57 128 -73 223 -22 128 -26 145 -31 135z"/> <path d="M1235 1716 c-18 -23 -25 -26 -25 -13 0 13 -9 17 -39 17 -22 0 -43 5 -46 10 -3 6 -16 10 -28 9 l-22 0 23 -9 c24 -10 28 -26 11 -50 -8 -12 -9 -10 -4 9 5 17 4 22 -6 19 -8 -3 -14 -10 -14 -16 0 -6 -6 -17 -12 -23 -8 -8 -13 -9 -13 -2 0 13 -46 5 -60 -12 -12 -15 87 -13 195 5 39 7 79 12 90 12 36 0 66 8 60 17 -3 5 1 12 7 14 8 3 6 6 -4 6 -10 1 -18 9 -18 19 0 14 -8 18 -35 19 -28 0 -40 -6 -60 -31z"/> <path d="M1430 1741 c0 -6 5 -13 10 -16 6 -3 10 -11 10 -18 0 -6 -6 -3 -14 8 -8 12 -20 16 -35 12 -13 -3 -19 -1 -15 5 4 6 1 9 -7 6 -16 -5 -21 -45 -8 -54 5 -3 9 2 9 11 0 10 4 13 13 8 6 -4 18 -8 26 -9 23 -4 46 -38 43 -64 -3 -19 -1 -22 8 -13 21 20 22 81 3 108 -18 24 -43 33 -43 16z"/> <path d="M950 1663 c-11 -14 -20 -36 -20 -49 0 -28 30 -94 42 -94 5 0 6 4 3 10 -3 5 -8 18 -10 27 -2 10 -7 29 -11 42 -6 19 -4 22 6 16 10 -6 12 -4 7 8 -4 10 1 22 12 29 27 20 31 34 11 35 -11 1 -29 -10 -40 -24z"/> <path d="M1363 1638 c-13 -6 -23 -14 -23 -18 0 -13 -74 -57 -106 -63 -20 -4 -38 -1 -50 7 -10 8 -24 12 -31 9 -7 -3 -20 0 -27 6 -10 8 -16 9 -21 1 -4 -6 10 -17 32 -26 49 -21 119 -13 175 20 24 14 52 30 63 35 12 5 27 16 34 25 12 14 11 16 -5 15 -11 0 -29 -5 -41 -11z"/> <path d="M1000 1601 c0 -10 39 -27 53 -23 5 1 6 -2 3 -7 -10 -16 8 -20 21 -6 10 11 10 17 -3 29 -17 17 -74 22 -74 7z"/> <path d="M1303 1479 c-26 -12 -67 -20 -108 -21 -63 -2 -81 -10 -50 -22 8 -3 22 -3 30 0 8 4 15 1 15 -5 0 -15 22 -10 37 9 11 13 12 12 13 -7 0 -13 5 -23 11 -23 5 0 8 4 5 9 -6 10 17 33 30 30 22 -5 63 14 67 32 6 23 4 23 -50 -2z"/> <path d="M1273 1368 c3 -10 -2 -27 -14 -41 -25 -32 -24 -41 1 -20 11 10 20 23 20 29 0 7 4 14 9 16 5 2 2 10 -7 18 -14 13 -15 12 -9 -2z"/> <path d="M1341 1348 c0 -18 3 -27 6 -19 5 11 7 11 15 0 7 -11 8 -9 4 4 -3 10 -6 25 -6 33 0 8 -4 14 -10 14 -5 0 -10 -15 -9 -32z"/> <path d="M964 1358 c-3 -4 -1 -8 5 -8 6 0 8 -7 5 -15 -4 -9 -1 -15 7 -15 8 0 14 10 14 23 0 23 -20 33 -31 15z"/> <path d="M907 1213 c-1 -1 -16 -5 -32 -8 -46 -9 -49 -10 -70 -22 -11 -6 -37 -16 -58 -23 -20 -6 -67 -28 -104 -48 -53 -30 -74 -49 -105 -96 -39 -60 -194 -364 -237 -466 -52 -121 -65 -149 -113 -248 l-51 -103 27 -54 c14 -29 26 -57 26 -62 1 -14 70 -87 70 -74 0 7 5 9 10 6 6 -3 10 1 10 9 0 9 -6 16 -13 16 -23 0 -73 75 -57 85 13 8 32 -4 25 -15 -7 -11 22 -7 32 5 4 4 3 5 -4 1 -7 -4 -17 2 -23 14 -6 11 -22 23 -35 26 -14 3 -25 10 -25 16 0 5 5 6 11 2 7 -4 7 1 -1 16 -6 12 -9 24 -6 28 3 3 6 0 6 -7 0 -6 8 -11 18 -9 12 2 17 -3 16 -20 -1 -22 0 -23 15 -8 14 14 14 18 2 26 -13 7 -13 11 0 27 13 17 13 17 -4 4 -15 -12 -19 -12 -32 5 -17 22 -19 40 -5 49 6 3 10 -3 10 -15 0 -26 18 -17 30 16 6 14 20 29 32 34 13 5 19 9 15 9 -5 1 -1 8 7 17 9 8 13 20 10 26 -4 7 -17 -2 -33 -21 -14 -17 -33 -31 -41 -31 -12 1 -11 3 2 11 10 5 18 19 18 30 0 11 7 22 16 26 15 5 33 40 40 73 2 8 11 20 20 27 17 12 17 13 -2 13 -18 1 -18 1 -1 11 9 5 17 20 17 33 0 23 40 150 46 144 1 -2 4 -29 5 -61 2 -34 7 -57 14 -57 8 0 9 19 2 70 -8 60 -7 73 7 88 9 10 16 26 16 35 0 8 6 22 13 29 11 11 28 43 31 58 1 3 14 31 29 63 17 34 33 55 39 50 7 -4 9 0 5 10 -4 10 -1 17 5 17 6 0 8 3 5 6 -7 7 38 65 48 64 3 -1 17 8 32 20 14 11 33 20 41 20 9 0 23 7 33 16 9 8 26 16 38 17 11 1 21 4 21 8 0 4 13 9 29 12 16 3 36 14 45 23 25 25 30 10 9 -28 -30 -56 -42 -88 -34 -88 5 0 16 19 25 43 19 49 43 79 75 97 23 12 23 11 -6 -41 -28 -50 -57 -145 -33 -109 5 8 10 20 10 27 0 6 16 39 35 73 19 34 35 64 35 66 0 4 -49 1 -53 -3z"/> <path d="M966 1128 c-17 -65 3 -133 55 -189 l41 -44 -35 43 c-42 52 -62 116 -52 171 7 44 1 56 -9 19z"/> <path d="M675 1014 c-3 -20 -4 -38 -1 -41 3 -3 0 -15 -6 -27 -6 -11 -13 -30 -14 -41 -2 -11 -6 -38 -9 -60 -5 -30 -4 -36 4 -25 6 8 11 27 11 41 0 14 3 29 7 33 8 7 9 14 21 99 9 62 -1 80 -13 21z"/> <path d="M530 935 c-7 -8 -9 -15 -6 -15 4 0 1 -10 -5 -22 -7 -12 -13 -40 -15 -63 -2 -22 -5 -60 -8 -85 -2 -27 1 -48 8 -52 8 -6 8 -8 -1 -8 -15 0 -18 -87 -4 -109 6 -8 6 -24 0 -38 -5 -12 -5 -23 0 -23 4 0 6 -15 3 -33 l-4 -32 15 25 c16 31 18 62 3 53 -6 -4 -5 1 3 10 7 9 11 23 8 31 -3 7 0 19 6 25 9 10 9 12 -3 9 -8 -2 -18 -7 -22 -13 -8 -10 -2 41 12 108 4 20 4 37 0 37 -12 0 -2 71 11 87 8 9 7 14 -5 19 -15 6 -15 9 -3 23 13 14 32 81 23 81 -2 0 -9 -7 -16 -15z"/> <path d="M1027 891 c17 -16 28 -33 25 -37 -4 -4 -1 -4 6 0 17 10 59 -4 42 -14 -8 -5 -8 -9 4 -13 9 -4 16 -2 16 4 0 6 3 8 8 6 4 -3 16 -1 27 3 16 6 13 9 -20 15 -47 9 -86 27 -104 49 -8 9 -19 16 -25 16 -6 0 3 -14 21 -29z"/> <path d="M2197 609 c-9 -25 -17 -51 -17 -59 1 -8 10 8 20 35 11 28 19 54 17 59 -2 5 -11 -11 -20 -35z"/> <path d="M445 572 c3 -29 10 -62 15 -75 9 -22 9 -22 9 3 0 14 -6 48 -14 75 l-15 50 5 -53z"/> <path d="M410 543 c1 -32 28 -134 39 -147 7 -8 11 -27 11 -42 -1 -16 1 -42 4 -59 3 -16 8 -49 10 -73 3 -24 9 -58 15 -75 5 -18 12 -50 16 -72 10 -62 15 -75 31 -75 11 0 13 6 9 19 -12 40 -55 276 -55 306 0 18 -13 71 -30 118 -16 48 -30 94 -30 102 0 8 -4 15 -10 15 -5 0 -10 -8 -10 -17z"/> <path d="M371 506 c-6 -7 -13 -35 -16 -62 -3 -27 -8 -73 -11 -101 -4 -44 -3 -53 10 -53 9 0 16 -4 16 -10 0 -5 -7 -10 -15 -10 -12 0 -14 -13 -11 -72 5 -71 18 -97 42 -78 6 6 15 6 19 2 5 -4 4 0 0 8 -5 8 -10 26 -11 40 -2 14 -5 47 -8 74 -4 34 -2 53 7 58 8 5 7 8 -5 8 -20 0 -22 28 -9 143 4 37 6 67 5 67 -1 0 -7 -6 -13 -14z"/> <path d="M695 450 c-11 -4 -23 -6 -27 -4 -11 7 -16 -9 -28 -95 -7 -49 -8 -87 -2 -93 10 -10 55 148 46 163 -3 5 9 9 27 9 31 0 31 -1 25 -37 -25 -139 -17 -192 15 -103 21 58 32 150 19 150 -5 0 -10 -5 -12 -10 -2 -6 -12 -3 -23 8 -14 12 -27 16 -40 12z"/> <path d="M610 425 c-5 -14 -13 -25 -18 -25 -4 0 -6 -15 -4 -34 2 -19 -1 -51 -8 -71 -12 -38 -1 -67 23 -62 7 1 12 -7 12 -18 0 -15 -7 -20 -25 -20 -24 0 -25 -2 -25 -65 0 -36 4 -74 9 -85 5 -11 9 -24 8 -30 -1 -6 44 -11 116 -12 64 -1 106 0 92 3 -14 2 -62 9 -107 15 -45 7 -87 15 -93 19 -7 4 -15 38 -18 75 -5 68 -5 68 19 62 65 -16 129 -19 144 -7 13 11 14 10 9 -5 -6 -15 -2 -17 36 -13 47 4 42 11 84 -104 20 -55 35 -62 32 -15 -1 17 2 37 6 43 6 8 3 11 -9 10 -10 0 -18 4 -18 9 0 6 -4 16 -9 24 -7 10 -6 12 4 6 8 -5 11 -3 8 6 -3 8 -9 13 -14 12 -5 0 -16 6 -24 15 -13 14 -13 15 0 10 8 -3 24 -1 35 3 20 9 20 9 0 7 -11 -2 -26 1 -33 6 -8 5 -18 4 -23 -1 -14 -14 -59 -4 -59 13 0 8 7 14 15 14 12 0 15 14 14 73 l0 72 -20 -54 c-15 -42 -16 -57 -7 -62 21 -13 1 -21 -32 -14 -31 7 -32 9 -27 46 3 21 1 42 -4 45 -13 8 -31 -45 -23 -68 5 -18 3 -19 -28 -13 -18 4 -34 8 -35 9 -6 5 -4 95 2 116 5 19 4 22 -4 10 -9 -13 -11 -11 -11 7 0 12 4 25 10 28 17 10 32 45 20 45 -6 0 -15 -11 -20 -25z"/> <path d="M1038 439 c-22 -12 -23 -26 -3 -31 12 -2 11 -6 -6 -16 -11 -8 -18 -9 -15 -3 4 5 1 13 -5 16 -5 4 -8 13 -5 21 3 8 1 14 -4 14 -11 0 -7 -41 16 -153 8 -38 14 -70 14 -73 0 -2 9 -4 20 -4 19 0 20 7 20 90 0 74 -3 93 -18 108 -17 17 -17 20 -3 30 20 14 12 15 -11 1z"/> <path d="M798 428 c7 -7 12 -41 12 -82 l0 -71 30 63 c32 68 41 112 16 80 -18 -24 -36 -23 -36 2 0 12 -7 20 -17 20 -13 0 -14 -3 -5 -12z"/> <path d="M1249 426 c9 -11 7 -15 -9 -19 -11 -3 -20 -2 -20 1 0 4 -17 6 -37 6 -21 -1 -41 4 -46 10 -5 7 -12 5 -22 -9 -17 -21 -13 -56 10 -110 13 -30 13 -30 14 23 1 30 -3 52 -10 52 -5 0 -7 5 -3 11 4 7 22 9 49 5 23 -4 54 -2 68 3 29 11 37 41 11 41 -13 0 -14 -3 -5 -14z"/> <path d="M904 406 c-9 -9 -34 -132 -34 -165 0 -29 29 -5 53 44 31 64 31 65 14 65 -8 0 -18 -10 -24 -22 -5 -12 -12 -17 -16 -12 -7 12 22 74 35 74 6 0 8 -6 5 -14 -3 -8 1 -17 9 -20 9 -4 18 3 24 20 13 32 13 44 0 44 -5 0 -10 -4 -10 -10 0 -12 -37 -13 -42 -1 -1 5 -8 4 -14 -3z"/> <path d="M708 405 c-12 -22 -18 -65 -8 -65 5 0 12 11 16 25 6 26 1 55 -8 40z"/> <path d="M1157 373 c-12 -11 -8 -43 6 -43 8 0 8 -3 -2 -9 -18 -12 -10 -140 10 -152 11 -6 10 -11 -6 -23 -11 -8 -23 -12 -28 -9 -9 5 -53 -47 -50 -59 2 -5 -2 -8 -8 -8 -6 0 -9 -9 -6 -20 3 -11 1 -23 -4 -26 -5 -3 -9 1 -9 8 0 9 -3 9 -10 -2 -15 -23 -12 -26 18 -25 21 0 28 5 30 25 5 43 24 80 41 80 9 0 43 -4 76 -10 65 -10 95 -34 95 -76 0 -21 4 -24 28 -20 15 2 30 5 33 5 3 1 6 8 6 16 0 8 -4 12 -9 9 -4 -3 -8 1 -8 8 0 9 -2 10 -8 2 -10 -16 -27 4 -27 31 0 13 -6 19 -18 19 -13 -2 -16 3 -12 17 5 15 3 17 -11 12 -13 -5 -15 -3 -9 8 8 12 6 12 -8 0 -19 -15 -24 -2 -6 16 6 6 8 17 3 24 -5 9 -9 8 -15 -7 -5 -13 -8 -5 -8 27 -1 25 -7 51 -13 58 -10 11 -10 14 0 18 6 3 12 11 12 19 0 8 7 14 16 14 13 0 14 3 4 15 -7 8 -17 12 -22 9 -6 -4 -2 6 8 21 18 28 18 28 -3 16 -33 -17 -51 -154 -22 -171 11 -7 10 -10 -4 -16 -37 -14 -44 0 -36 77 5 41 11 84 14 95 3 14 -1 24 -11 28 -19 7 -19 7 -27 -1z m70 -230 c18 -17 17 -19 -16 -18 -26 0 -30 6 -22 33 2 5 26 -4 38 -15z"/> <path d="M1342 360 c-21 -17 -21 -19 -4 -24 20 -7 26 -36 8 -36 -6 0 -4 -4 4 -10 12 -7 12 -12 -4 -29 -10 -11 -23 -18 -27 -15 -5 3 -9 -2 -9 -10 0 -8 -7 -19 -16 -24 -15 -8 -15 -11 0 -34 24 -37 61 -54 81 -38 12 10 15 10 15 -1 0 -11 2 -11 10 1 5 8 10 11 10 7 0 -5 7 -2 15 7 22 22 42 176 24 187 -8 5 -17 3 -21 -4 -6 -9 -8 -8 -8 3 -1 38 -18 -19 -23 -80 -3 -36 -9 -73 -12 -82 -9 -23 -42 -33 -60 -18 -20 16 -19 60 0 60 9 0 14 -8 12 -21 -1 -12 3 -23 8 -26 16 -5 40 168 24 177 -6 4 -8 13 -5 19 10 15 5 13 -22 -9z"/> <path d="M958 320 c-15 -27 -15 -28 7 -33 22 -4 23 -1 18 27 -3 17 -6 32 -7 33 -1 1 -9 -11 -18 -27z"/> <path d="M828 278 l-25 -63 26 -12 c14 -6 36 -9 49 -6 14 3 22 1 22 -8 0 -10 3 -10 12 -1 7 7 23 12 38 12 18 0 21 -3 11 -9 -9 -6 6 -12 45 -19 36 -6 63 -7 69 -1 5 5 19 9 32 9 17 0 21 -4 16 -17 -5 -15 -3 -16 8 -5 15 14 5 65 -30 142 l-20 45 1 -65 c0 -36 5 -71 10 -77 8 -10 1 -13 -28 -13 -57 0 -87 10 -75 24 6 7 8 22 4 35 -4 18 -12 21 -37 19 -27 -3 -31 -7 -29 -30 2 -27 0 -28 -46 -28 -54 0 -66 7 -47 26 13 12 31 93 22 101 -2 2 -15 -24 -28 -59z"/> <path d="M1652 261 c-7 -19 -12 -35 -12 -36 0 -2 9 -5 20 -8 22 -6 24 7 11 53 -7 25 -7 25 -19 -9z"/> <path d="M2044 274 c3 -9 6 -18 6 -20 0 -2 6 -4 14 -4 8 0 16 -6 19 -12 2 -7 7 -10 11 -7 8 7 -32 59 -46 59 -5 0 -7 -7 -4 -16z"/> <path d="M1476 218 c-11 -53 -8 -58 28 -58 45 0 55 16 15 24 -26 5 -29 8 -19 25 13 25 13 28 -4 34 -9 4 -16 -4 -20 -25z"/> <path d="M430 208 c0 -14 7 -41 15 -59 l16 -34 -6 50 c-7 55 -25 86 -25 43z"/> </g> </svg> 